# xmcd
#
# Track frame offsets: 
#        150
#        14401
#        26428
#        42951
#        60444
#        76678
#        87753
#        101161
#        127012
#        142645
#        161513
#        176948
#        190089
#        206763
#        218178
#        228823
#
# Disc length: 3270 seconds
#
# Revision: 0
# Processed by: cddbd v1.5.2PL0 Copyright (c) Steve Scherf et al.
# Submitted via: ExactAudioCopy v1.0b1
#
DISCID=cb0cc410
DTITLE=Brunetaud (Julien) Trio - Look Like Twins
DYEAR=2010
DGENRE=Jazz
TTITLE0=Up To You (Julien Brunetaud)
TTITLE1=Sweet Lorraine (Cliff Burwell, Mitchell Parish)
TTITLE2=Exactly Like You (Jimmy Mchugh - Dorothy Fields)
TTITLE3=Catalonian Night (Dexter Gordon)
TTITLE4=Darling How Long (Amos Milburn)
TTITLE5=No More Doggin’ (Rosco Gordon)
TTITLE6=Yes We Can (Julien Brunetaud)
TTITLE7=Look Like Twins (Mckinley Morganfield)
TTITLE8=When I Grow (Sigmund Romberg - Oscar Hammerstein)
TTITLE9=Bainbridge Blues (Julien Brunetaud - Cédric Caillaud - Matthie
TTITLE9=u Chazarenc)
TTITLE10=As Times Goes Bye (Herman Hupfeld)
TTITLE11=No Woman No Cry (Bob Marley)
TTITLE12=Mamanita (Jelly Roll Morton)
TTITLE13=Baby Wont You Please Come Home (Clarence Williams, Charles Wa
TTITLE13=rfield)
TTITLE14=Swingin For Basil (Julien Brunetaud)
TTITLE15=Old Fashionned Love (James P Johnson)
EXTD=
EXTT0=
EXTT1=
EXTT2=
EXTT3=
EXTT4=
EXTT5=
EXTT6=
EXTT7=
EXTT8=
EXTT9=
EXTT10=
EXTT11=
EXTT12=
EXTT13=
EXTT14=
EXTT15=
PLAYORDER=
